# Blender v2.90.0 OBJ File: ''
# www.blender.org
o sibenik.010
v 4.083940 -13.040000 3.880000
v 4.033940 -13.040000 -3.580000
v 4.593940 -13.040000 0.910000
v 4.593940 -13.000000 1.269999
v 4.593940 -13.040000 1.269999
v 4.593940 -13.000000 0.910000
v 3.803940 -13.040000 -3.600000
v 4.053940 -13.000000 -3.600000
v 4.053940 -13.040000 -3.600000
v 3.803940 -13.000000 -3.600000
v 4.573940 -13.040000 0.930000
v 4.573940 -13.040000 1.249999
v 3.823940 -13.040000 -3.580000
v 3.823940 -13.730000 -0.690001
v 3.823940 -14.160000 -1.980001
v 3.823940 -14.160000 -0.690001
v 3.823940 -13.730000 0.930000
v 3.823940 -14.160000 0.930000
v 3.823940 -14.160000 1.099999
v 4.033940 -13.040000 -1.000001
v 4.033940 -13.730000 -1.780001
v 4.033940 -13.040000 -1.780001
v 4.033940 -13.730000 -1.000001
v 4.033940 -13.730000 -2.730001
v 4.033940 -13.040000 -2.730000
v 4.573940 -13.730000 0.930000
v 4.433940 -13.040000 1.249999
v 4.433940 -13.730000 1.249999
v 4.083940 -13.730000 2.769999
v 4.083940 -13.040000 2.770000
v 4.083940 -13.730000 1.249999
v 4.573940 -14.160000 0.930000
v 4.033940 -14.160000 -1.000001
v 4.103940 -13.000000 1.269999
v 3.803940 -13.000000 0.910000
v 3.803940 -13.000000 -0.670001
v 4.593940 -13.000000 -1.020001
v 4.053940 -13.000000 -1.020001
v 4.593940 -13.000000 -0.670001
v 3.803940 -13.000000 3.880000
v 4.103940 -13.000000 3.880000
v 3.803940 -13.040000 0.910000
v 3.803940 -13.040000 3.880000
v 4.103940 -13.040000 1.269999
v 4.103940 -13.040000 3.880000
v 3.803940 -13.040000 -0.670001
v 4.593940 -13.040000 -0.670001
v 4.593940 -13.040000 -1.020001
v 4.053940 -13.040000 -1.020001
v 3.823940 -13.040000 0.930000
v 3.823940 -13.040000 3.880000
v 4.083940 -13.040000 1.249999
v 3.823940 -13.040000 -0.690001
v 4.573940 -13.040000 -0.690001
v 4.573940 -13.040000 -1.000001
v 3.823940 -13.730000 -3.580001
v 3.823940 -14.160000 -2.280001
v 3.823940 -14.160000 -3.580001
v 3.823940 -14.160000 1.399999
v 3.823940 -14.160000 1.679999
v 3.823940 -14.160000 1.979999
v 3.823940 -14.160000 2.279999
v 3.823940 -13.730000 3.879999
v 3.823940 -14.160000 2.579999
v 3.823940 -14.160000 3.879999
v 4.573940 -13.730000 -0.690001
v 4.573940 -13.730000 -1.000001
v 4.573940 -14.160000 -0.690001
v 4.573940 -14.160000 -1.000001
vt -0.228125 0.235417
vt -0.126042 0.310417
vt -0.290625 0.310417
vt -0.126042 0.235417
vt -0.290625 0.639583
vt -0.126042 0.712500
vt -0.238542 0.712500
vt -0.126042 0.639583
vt -0.290625 -0.308333
vt -0.228125 -0.308333
vt -0.238542 1.250000
vt -0.290625 1.250000
vt -0.290625 1.127780
vt -0.126042 1.138890
vt -0.126042 1.127780
vt -0.290625 1.138890
vt -0.308333 1.127780
vt 0.310417 1.138890
vt 0.310417 1.127780
vt -0.308333 1.138890
vt 0.235417 1.127780
vt -0.308333 1.138890
vt -0.308333 1.127780
vt 0.235417 1.138890
vt -0.126042 1.127780
vt -0.228125 1.138890
vt -0.228125 1.127780
vt -0.126042 1.138890
vt 0.639583 1.127780
vt 1.250000 1.138890
vt 1.250000 1.127780
vt 0.639583 1.138890
vt -0.126042 1.127780
vt -0.290625 1.138890
vt -0.290625 1.127780
vt -0.126042 1.138890
vt 0.712500 1.127780
vt 0.639583 1.138890
vt 0.639583 1.127780
vt 0.712500 1.138890
vt -0.238542 1.127780
vt -0.126042 1.138890
vt -0.126042 1.127780
vt -0.238542 1.138890
vt 1.250000 1.127780
vt 0.712500 1.138890
vt 0.712500 1.127780
vt 1.250000 1.138890
vt -0.286458 0.306250
vt -0.126042 0.310417
vt -0.130208 0.306250
vt -0.290625 0.310417
vt -0.286458 -0.308333
vt -0.290625 -0.308333
vt -0.232292 0.239583
vt -0.228125 -0.308333
vt -0.232292 -0.308333
vt -0.228125 0.235417
vt -0.130208 0.239583
vt -0.126042 0.235417
vt -0.286458 0.643750
vt -0.290625 1.250000
vt -0.286458 1.245830
vt -0.290625 0.639583
vt -0.130208 0.643750
vt -0.126042 0.639583
vt -0.130208 0.708333
vt -0.126042 0.712500
vt -0.242708 0.708333
vt -0.238542 0.712500
vt -0.242708 1.245830
vt -0.238542 1.250000
vt 0.643750 0.936111
vt 1.245830 0.936111
vt 0.912500 0.816667
vt 0.975000 0.816667
vt 1.245830 0.816667
vt 0.643750 1.127780
vt 1.245830 1.127780
vt 0.270833 0.816667
vt 0.208333 0.816667
vt 0.306250 0.936111
vt 0.150000 0.816667
vt 0.087500 0.816667
vt 0.025000 0.816667
vt -0.308333 0.936111
vt -0.037500 0.816667
vt -0.308333 0.816667
vt 0.306250 1.127780
vt -0.308333 1.127780
vt 0.708333 1.127780
vt 0.643750 0.936111
vt 0.708333 0.936111
vt 0.643750 1.127780
vt -0.130208 0.936111
vt -0.242708 1.127780
vt -0.130208 1.127780
vt -0.242708 0.936111
vt -0.286458 0.936111
vt -0.130208 1.127780
vt -0.286458 1.127780
vt -0.130208 0.936111
vt 0.870834 0.936111
vt 1.068750 1.127780
vt 0.870834 1.127780
vt 1.068750 0.936111
vt -0.130208 0.936111
vt -0.286458 1.127780
vt -0.130208 1.127780
vt -0.286458 0.936111
vt -0.159375 0.936111
vt -0.232292 1.127780
vt -0.232292 0.936111
vt -0.159375 1.127780
vt 0.239583 0.936111
vt -0.077083 1.127780
vt -0.077083 0.936111
vt 0.239583 1.127780
vt -0.286458 0.816667
vt -0.130208 0.816667
vt -0.286458 0.816667
vt -0.130208 0.816667
vt 0.643750 0.816667
vt 0.708333 0.816667
vt -0.242708 0.816667
vt -0.130208 0.816667
vn 0.0000 1.0000 0.0000
vn 0.0000 0.0000 -1.0000
vn -1.0000 0.0000 0.0000
vn 1.0000 0.0000 0.0000
vn 0.0000 0.0000 1.0000
vn 0.0000 -1.0000 -0.0000
vn 0.0000 -1.0000 0.0001
vn 0.0000 -1.0000 -0.0001
s off
f 34/1/1 6/2/1 35/3/1
f 34/1/1 4/4/1 6/2/1
f 36/5/1 37/6/1 38/7/1
f 36/5/1 39/8/1 37/6/1
f 40/9/1 34/1/1 35/3/1
f 40/9/1 41/10/1 34/1/1
f 36/5/1 8/11/1 10/12/1
f 36/5/1 38/7/1 8/11/1
f 42/13/2 6/14/2 3/15/2
f 42/13/2 35/16/2 6/14/2
f 43/17/3 35/18/3 42/19/3
f 43/17/3 40/20/3 35/18/3
f 44/21/4 41/22/4 45/23/4
f 44/21/4 34/24/4 41/22/4
f 5/25/5 34/26/5 44/27/5
f 5/25/5 4/28/5 34/26/5
f 46/29/3 10/30/3 7/31/3
f 46/29/3 36/32/3 10/30/3
f 47/33/5 36/34/5 46/35/5
f 47/33/5 39/36/5 36/34/5
f 48/37/4 39/38/4 47/39/4
f 48/37/4 37/40/4 39/38/4
f 49/41/2 37/42/2 48/43/2
f 49/41/2 38/44/2 37/42/2
f 9/45/4 38/46/4 49/47/4
f 9/45/4 8/48/4 38/46/4
f 50/49/6 3/50/6 11/51/6
f 50/49/7 42/52/7 3/50/7
f 51/53/6 42/52/6 50/49/6
f 51/53/6 43/54/6 42/52/6
f 52/55/6 45/56/6 1/57/6
f 52/55/6 44/58/6 45/56/6
f 12/59/6 44/58/6 52/55/6
f 12/59/6 5/60/6 44/58/6
f 53/61/6 7/62/6 13/63/6
f 53/61/6 46/64/6 7/62/6
f 54/65/6 46/64/6 53/61/6
f 54/65/8 47/66/8 46/64/8
f 55/67/6 47/66/6 54/65/6
f 55/67/6 48/68/6 47/66/6
f 20/69/6 48/68/6 55/67/6
f 20/69/6 49/70/6 48/68/6
f 2/71/6 49/70/6 20/69/6
f 2/71/6 9/72/6 49/70/6
f 14/73/3 56/74/3 15/75/3
f 15/75/3 56/74/3 57/76/3
f 56/74/3 58/77/3 57/76/3
f 53/78/3 56/74/3 14/73/3
f 53/78/3 13/79/3 56/74/3
f 19/80/3 59/81/3 17/82/3
f 59/81/3 60/83/3 17/82/3
f 60/83/3 61/84/3 17/82/3
f 61/84/3 62/85/3 17/82/3
f 63/86/3 17/82/3 62/85/3
f 63/86/3 62/85/3 64/87/3
f 65/88/3 63/86/3 64/87/3
f 63/86/3 50/89/3 17/82/3
f 63/86/3 51/90/3 50/89/3
f 55/91/4 66/92/4 67/93/4
f 55/91/4 54/94/4 66/92/4
f 67/95/2 20/96/2 55/97/2
f 67/95/2 23/98/2 20/96/2
f 14/99/5 54/100/5 53/101/5
f 14/99/5 66/102/5 54/100/5
f 21/103/4 25/104/4 22/105/4
f 21/103/4 24/106/4 25/104/4
f 26/107/2 50/108/2 11/109/2
f 26/107/2 17/110/2 50/108/2
f 28/111/5 52/112/5 31/113/5
f 28/111/5 27/114/5 52/112/5
f 31/115/4 30/116/4 29/117/4
f 31/115/4 52/118/4 30/116/4
f 18/119/2 26/107/2 32/120/2
f 18/119/2 17/110/2 26/107/2
f 66/102/5 16/121/5 68/122/5
f 66/102/5 14/99/5 16/121/5
f 68/123/4 67/93/4 66/92/4
f 68/123/4 69/124/4 67/93/4
f 33/125/2 67/95/2 69/126/2
f 33/125/2 23/98/2 67/95/2
