# Blender v2.90.0 OBJ File: ''
# www.blender.org
o sibenik
v -19.761101 -4.037800 0.374641
v -19.761101 -3.923870 0.430152
v -19.761101 -4.120170 0.493933
v -19.761101 -4.114020 0.417071
v -19.761101 -3.983410 0.542027
v -19.761101 -4.070010 0.552501
v -19.761101 -3.851660 0.800610
v -19.761101 -3.726150 0.818197
v -19.761101 -3.893130 0.939516
v -19.761101 -3.911040 0.864516
v -19.761101 -3.748210 0.942997
v -19.761101 -3.827340 0.979720
v -19.761101 -3.418200 1.126150
v -19.761101 -3.543000 1.148210
v -19.761101 -3.539520 1.293130
v -19.761101 -3.579720 1.227340
v -19.761101 -3.400610 1.251660
v -19.761101 -3.464520 1.311040
v -19.761101 -3.030150 1.323870
v -19.761101 -3.142030 1.383410
v -19.761101 -3.093930 1.520170
v -19.761101 -3.152500 1.470020
v -19.761101 -2.974640 1.437800
v -19.761101 -3.017070 1.514020
v -19.761101 -2.600000 1.392000
v -19.761101 -2.688000 1.483200
v -19.761101 -2.600000 1.598400
v -19.761101 -2.671200 1.568800
v -19.761101 -2.512000 1.483200
v -19.761101 -2.528800 1.568800
v -19.761101 -2.169850 1.323870
v -19.761101 -2.225360 1.437800
v -19.761101 -2.106070 1.520170
v -19.761101 -2.182930 1.514020
v -19.761101 -2.057970 1.383410
v -19.761101 -2.047500 1.470020
v -19.761101 -1.781800 1.126150
v -19.761101 -1.799390 1.251660
v -19.761101 -1.660480 1.293130
v -19.761101 -1.735480 1.311040
v -19.761101 -1.657000 1.148210
v -19.761101 -1.620280 1.227340
v -19.761101 -1.473850 0.818197
v -19.761101 -1.451790 0.942997
v -19.761101 -1.306870 0.939516
v -19.761101 -1.372660 0.979720
v -19.761101 -1.348340 0.800610
v -19.761101 -1.288960 0.864516
v -19.761101 -1.276130 0.430152
v -19.761101 -1.216590 0.542027
v -19.761101 -1.079830 0.493933
v -19.761101 -1.129980 0.552501
v -19.761101 -1.162200 0.374641
v -19.761101 -1.085980 0.417071
v -19.761101 -1.116800 0.088000
v -19.761101 -1.208000 -0.000000
v -19.761101 -1.001600 -0.000000
v -19.761101 -1.031200 0.071200
v -19.761101 -1.116800 -0.088000
v -19.761101 -1.031200 -0.071200
v -19.761101 -1.162200 -0.374641
v -19.761101 -1.276130 -0.430152
v -19.761101 -1.079830 -0.493933
v -19.761101 -1.085980 -0.417071
v -19.761101 -1.216590 -0.542027
v -19.761101 -1.129980 -0.552501
v -19.761101 -1.348340 -0.800610
v -19.761101 -1.473850 -0.818197
v -19.761101 -1.306870 -0.939516
v -19.761101 -1.288960 -0.864515
v -19.761101 -1.451790 -0.942997
v -19.761101 -1.372660 -0.979719
v -19.761101 -1.781800 -1.126150
v -19.761101 -1.657000 -1.148210
v -19.761101 -1.660480 -1.293130
v -19.761101 -1.620280 -1.227340
v -19.761101 -1.799390 -1.251660
v -19.761101 -1.735480 -1.311040
v -19.761101 -2.169850 -1.323870
v -19.761101 -2.057970 -1.383410
v -19.761101 -2.106070 -1.520170
v -19.761101 -2.047500 -1.470020
v -19.761101 -2.225360 -1.437800
v -19.761101 -2.182930 -1.514020
v -19.761101 -2.600000 -1.392000
v -19.761101 -2.512000 -1.483200
v -19.761101 -2.600000 -1.598400
v -19.761101 -2.528800 -1.568800
v -19.761101 -2.688000 -1.483200
v -19.761101 -2.671200 -1.568800
v -19.761101 -3.030150 -1.323870
v -19.761101 -2.974640 -1.437800
v -19.761101 -3.093930 -1.520170
v -19.761101 -3.017070 -1.514020
v -19.761101 -3.142030 -1.383410
v -19.761101 -3.152500 -1.470020
v -19.761101 -3.418200 -1.126150
v -19.761101 -3.400610 -1.251660
v -19.761101 -3.539520 -1.293130
v -19.761101 -3.464520 -1.311040
v -19.761101 -3.543000 -1.148210
v -19.761101 -3.579720 -1.227340
v -19.761101 -3.726150 -0.818197
v -19.761101 -3.748210 -0.942996
v -19.761101 -3.893130 -0.939516
v -19.761101 -3.827340 -0.979719
v -19.761101 -3.851660 -0.800609
v -19.761101 -3.911040 -0.864515
v -19.761101 -3.923870 -0.430151
v -19.761101 -3.983410 -0.542027
v -19.761101 -4.120170 -0.493933
v -19.761101 -4.070010 -0.552501
v -19.761101 -4.037800 -0.374641
v -19.761101 -4.114020 -0.417070
v -19.761101 -4.083200 -0.088000
v -19.761101 -3.992000 -0.000000
v -19.761101 -4.198400 -0.000000
v -19.761101 -4.168800 -0.071200
v -19.761101 -4.083200 0.088000
v -19.761101 -4.168800 0.071200
vt -0.578215 1.691670
vt -0.578215 1.691670
vt -0.578215 1.691670
vt -0.578215 1.691670
vt -0.578215 1.691670
vt -0.578215 1.691670
vt -0.578215 1.691670
vt -0.578215 1.691670
vt -0.578215 1.691670
vt -0.578215 1.691670
vt -0.578215 1.691670
vt -0.578215 1.691670
vt -0.578215 1.691670
vt -0.578215 1.691670
vt -0.578215 1.691670
vt -0.578215 1.691670
vt -0.578215 1.691670
vt -0.578215 1.691670
vt -0.578215 1.691670
vt -0.578215 1.691670
vt -0.578215 1.691670
vt -0.578215 1.691670
vt -0.578215 1.691670
vt -0.578215 1.691670
vt -0.578215 1.691670
vt -0.578215 1.691670
vt -0.578215 1.691670
vt -0.578215 1.691670
vt -0.578215 1.691670
vt -0.578215 1.691670
vt -0.578215 1.691670
vt -0.578215 1.691670
vt -0.578215 1.691670
vt -0.578215 1.691670
vt -0.578215 1.691670
vt -0.578215 1.691670
vt -0.578215 1.691670
vt -0.578215 1.691670
vt -0.578215 1.691670
vt -0.578215 1.691670
vt -0.578215 1.691670
vt -0.578215 1.691670
vt -0.578215 1.691670
vt -0.578215 1.691670
vt -0.578215 1.691670
vt -0.578215 1.691670
vt -0.578215 1.691670
vt -0.578215 1.691670
vt -0.578215 1.691670
vt -0.578215 1.691670
vt -0.578215 1.691670
vt -0.578215 1.691670
vt -0.578215 1.691670
vt -0.578215 1.691670
vt -0.578215 1.691670
vt -0.578215 1.691670
vt -0.578215 1.691670
vt -0.578215 1.691670
vt -0.578215 1.691670
vt -0.578215 1.691670
vt -0.578215 1.691670
vt -0.578215 1.691670
vt -0.578215 1.691670
vt -0.578215 1.691670
vt -0.578215 1.691670
vt -0.578215 1.691670
vt -0.578215 1.691670
vt -0.578215 1.691670
vt -0.578215 1.691670
vt -0.578215 1.691670
vt -0.578215 1.691670
vt -0.578215 1.691670
vt -0.578215 1.691670
vt -0.578215 1.691670
vt -0.578215 1.691670
vt -0.578215 1.691670
vt -0.578215 1.691670
vt -0.578215 1.691670
vt -0.578215 1.691670
vt -0.578215 1.691670
vt -0.578215 1.691670
vt -0.578215 1.691670
vt -0.578215 1.691670
vt -0.578215 1.691670
vt -0.578215 1.691670
vt -0.578215 1.691670
vt -0.578215 1.691670
vt -0.578215 1.691670
vt -0.578215 1.691670
vt -0.578215 1.691670
vt -0.578215 1.691670
vt -0.578215 1.691670
vt -0.578215 1.691670
vt -0.578215 1.691670
vt -0.578215 1.691670
vt -0.578215 1.691670
vt -0.578215 1.691670
vt -0.578215 1.691670
vt -0.578215 1.691670
vt -0.578215 1.691670
vt -0.578215 1.691670
vt -0.578215 1.691670
vt -0.578215 1.691670
vt -0.578215 1.691670
vt -0.578215 1.691670
vt -0.578215 1.691670
vt -0.578215 1.691670
vt -0.578215 1.691670
vt -0.578215 1.691670
vt -0.578215 1.691670
vt -0.578215 1.691670
vt -0.578215 1.691670
vt -0.578215 1.691670
vt -0.578215 1.691670
vt -0.578215 1.691670
vt -0.578215 1.691670
vt -0.578215 1.691670
vt -0.578215 1.691670
vt -0.578215 1.691670
vt -0.578215 1.691670
vn 1.0000 0.0000 0.0000
s off
f 3/1/1 1/2/1 2/3/1
f 3/1/1 4/4/1 1/2/1
f 5/5/1 3/1/1 2/3/1
f 5/5/1 6/6/1 3/1/1
f 9/7/1 7/8/1 8/9/1
f 9/7/1 10/10/1 7/8/1
f 11/11/1 9/7/1 8/9/1
f 11/11/1 12/12/1 9/7/1
f 15/13/1 14/14/1 13/15/1
f 15/13/1 16/16/1 14/14/1
f 17/17/1 15/13/1 13/15/1
f 17/17/1 18/18/1 15/13/1
f 21/19/1 20/20/1 19/21/1
f 21/19/1 22/22/1 20/20/1
f 23/23/1 21/19/1 19/21/1
f 23/23/1 24/24/1 21/19/1
f 27/25/1 26/26/1 25/27/1
f 27/25/1 28/28/1 26/26/1
f 29/29/1 27/25/1 25/27/1
f 29/29/1 30/30/1 27/25/1
f 33/31/1 32/32/1 31/33/1
f 33/31/1 34/34/1 32/32/1
f 35/35/1 33/31/1 31/33/1
f 35/35/1 36/36/1 33/31/1
f 39/37/1 38/38/1 37/39/1
f 39/37/1 40/40/1 38/38/1
f 41/41/1 39/37/1 37/39/1
f 41/41/1 42/42/1 39/37/1
f 45/43/1 44/44/1 43/45/1
f 45/43/1 46/46/1 44/44/1
f 47/47/1 45/43/1 43/45/1
f 47/47/1 48/48/1 45/43/1
f 51/49/1 50/50/1 49/51/1
f 51/49/1 52/52/1 50/50/1
f 53/53/1 51/49/1 49/51/1
f 53/53/1 54/54/1 51/49/1
f 57/55/1 55/56/1 56/57/1
f 57/55/1 58/58/1 55/56/1
f 59/59/1 57/55/1 56/57/1
f 59/59/1 60/60/1 57/55/1
f 63/61/1 61/62/1 62/63/1
f 63/61/1 64/64/1 61/62/1
f 65/65/1 63/61/1 62/63/1
f 65/65/1 66/66/1 63/61/1
f 69/67/1 67/68/1 68/69/1
f 69/67/1 70/70/1 67/68/1
f 71/71/1 69/67/1 68/69/1
f 71/71/1 72/72/1 69/67/1
f 75/73/1 74/74/1 73/75/1
f 75/73/1 76/76/1 74/74/1
f 77/77/1 75/73/1 73/75/1
f 77/77/1 78/78/1 75/73/1
f 81/79/1 80/80/1 79/81/1
f 81/79/1 82/82/1 80/80/1
f 83/83/1 81/79/1 79/81/1
f 83/83/1 84/84/1 81/79/1
f 87/85/1 86/86/1 85/87/1
f 87/85/1 88/88/1 86/86/1
f 89/89/1 87/85/1 85/87/1
f 89/89/1 90/90/1 87/85/1
f 93/91/1 92/92/1 91/93/1
f 93/91/1 94/94/1 92/92/1
f 95/95/1 93/91/1 91/93/1
f 95/95/1 96/96/1 93/91/1
f 99/97/1 98/98/1 97/99/1
f 99/97/1 100/100/1 98/98/1
f 101/101/1 99/97/1 97/99/1
f 101/101/1 102/102/1 99/97/1
f 105/103/1 104/104/1 103/105/1
f 105/103/1 106/106/1 104/104/1
f 107/107/1 105/103/1 103/105/1
f 107/107/1 108/108/1 105/103/1
f 111/109/1 110/110/1 109/111/1
f 111/109/1 112/112/1 110/110/1
f 113/113/1 111/109/1 109/111/1
f 113/113/1 114/114/1 111/109/1
f 117/115/1 115/116/1 116/117/1
f 117/115/1 118/118/1 115/116/1
f 119/119/1 117/115/1 116/117/1
f 119/119/1 120/120/1 117/115/1
