# Blender v2.90.0 OBJ File: ''
# www.blender.org
o sibenik.014
v -19.761101 -3.688260 0.220694
v -19.761101 -3.714320 0.176491
v -19.761101 -3.582340 0.155587
v -19.761101 -3.635690 0.227165
v -19.761101 -3.361610 0.247461
v -19.761101 -3.373580 0.122523
v -19.761101 -4.092730 0.236426
v -19.761101 -3.279430 0.220762
v -19.761101 -3.296810 0.110363
v -19.761101 -4.120170 0.493933
v -19.761101 -3.297860 0.355576
v -19.761101 -3.486180 0.451532
v -19.761101 -3.571420 0.424985
v -19.761101 -3.610150 0.461121
v -19.761101 -3.605240 0.512198
v -19.761101 -3.983410 0.542027
v -19.761101 -3.946610 0.686134
v -19.761101 -3.228600 0.320287
v -19.761101 -4.070010 0.552501
v -19.761101 -3.247860 0.470699
v -19.761101 -3.514800 0.536093
v -19.761101 -3.566800 0.546185
v -19.761101 -3.177960 0.419914
v -19.761101 -3.893130 0.939516
v -19.761101 -3.153820 0.553823
v -19.761101 -3.303280 0.703277
v -19.761101 -3.392540 0.704369
v -19.761101 -3.418210 0.750705
v -19.761101 -3.397770 0.797767
v -19.761101 -3.748210 0.942997
v -19.761101 -3.668680 1.068680
v -19.761101 -3.098860 0.498858
v -19.761101 -3.827340 0.979720
v -19.761101 -3.070700 0.647861
v -19.761101 -3.304370 0.792545
v -19.761101 -3.350700 0.818212
v -19.761101 -3.019910 0.577962
v -19.761101 -3.539520 1.293130
v -19.761101 -2.955580 0.697857
v -19.761101 -3.051530 0.886181
v -19.761101 -3.136090 0.914804
v -19.761101 -3.146180 0.966804
v -19.761101 -3.112200 1.005240
v -19.761101 -3.400610 1.251660
v -19.761101 -3.286130 1.346610
v -19.761101 -2.920290 0.628598
v -19.761101 -3.464520 1.311040
v -19.761101 -2.847460 0.761606
v -19.761101 -3.024980 0.971417
v -19.761101 -3.061120 1.010150
v -19.761101 -2.820760 0.679435
v -19.761101 -3.093930 1.520170
v -19.761101 -2.722520 0.773581
v -19.761101 -2.755590 0.982339
v -19.761101 -2.827160 1.035690
v -19.761101 -2.820690 1.088270
v -19.761101 -2.776490 1.114320
v -19.761101 -2.974640 1.437800
v -19.761101 -2.836430 1.492730
v -19.761101 -2.710360 0.696806
v -19.761101 -3.017070 1.514020
v -19.761101 -2.600000 0.800800
v -19.761101 -2.704000 1.055200
v -19.761101 -2.726400 1.103200
v -19.761101 -2.600000 0.714400
v -19.761101 -2.600000 1.598400
v -19.761101 -2.444410 0.982339
v -19.761101 -2.477480 0.773581
v -19.761101 -2.496000 1.055200
v -19.761101 -2.473600 1.103200
v -19.761101 -2.423510 1.114320
v -19.761101 -2.363570 1.492730
v -19.761101 -2.512000 1.483200
v -19.761101 -2.489640 0.696806
v -19.761101 -2.528800 1.568800
v -19.761101 -2.352540 0.761606
v -19.761101 -2.372840 1.035690
v -19.761101 -2.379310 1.088270
v -19.761101 -2.379240 0.679435
v -19.761101 -2.106070 1.520170
v -19.761101 -2.148470 0.886181
v -19.761101 -2.244420 0.697857
v -19.761101 -2.175010 0.971417
v -19.761101 -2.138880 1.010150
v -19.761101 -2.087800 1.005240
v -19.761101 -1.913870 1.346610
v -19.761101 -2.057970 1.383410
v -19.761101 -2.279710 0.628598
v -19.761101 -2.047500 1.470020
v -19.761101 -2.129300 0.647861
v -19.761101 -2.063910 0.914804
v -19.761101 -2.053810 0.966804
v -19.761101 -2.180090 0.577962
v -19.761101 -1.660480 1.293130
v -19.761101 -1.896720 0.703277
v -19.761101 -2.046180 0.553823
v -19.761101 -1.895630 0.792545
v -19.761101 -1.849300 0.818211
v -19.761101 -1.802230 0.797767
v -19.761101 -1.531320 1.068680
v -19.761101 -1.657000 1.148210
v -19.761101 -2.101140 0.498858
v -19.761101 -1.620280 1.227340
v -19.761101 -1.952140 0.470699
v -19.761101 -1.807460 0.704369
v -19.761101 -1.781790 0.750704
v -19.761101 -2.022040 0.419914
v -19.761101 -1.306870 0.939516
v -19.761101 -1.902140 0.355576
v -19.761101 -1.713820 0.451532
v -19.761101 -1.685200 0.536093
v -19.761101 -1.633200 0.546185
v -19.761101 -1.594760 0.512198
v -19.761101 -1.253390 0.686134
v -19.761101 -1.348340 0.800610
v -19.761101 -1.971400 0.320287
v -19.761101 -1.288960 0.864516
v -19.761101 -1.838390 0.247461
v -19.761101 -1.628580 0.424985
v -19.761101 -1.589850 0.461121
v -19.761101 -1.920560 0.220762
v -19.761101 -1.079830 0.493933
v -19.761101 -1.485680 0.176491
v -19.761101 -1.511730 0.220694
v -19.761101 -1.564310 0.227165
v -19.761101 -1.617660 0.155587
v -19.761101 -1.826420 0.122523
v -19.761101 -1.107270 0.236426
v -19.761101 -1.162200 0.374641
v -19.761101 -1.903190 0.110363
v -19.761101 -1.085980 0.417071
v -19.761101 -1.496800 0.126400
v -19.761101 -1.544800 0.104000
v -19.761101 -1.799200 -0.000000
v -19.761101 -1.885600 -0.000000
v -19.761101 -1.001600 -0.000000
v -19.761101 -1.485680 -0.176491
v -19.761101 -1.496800 -0.126400
v -19.761101 -1.544800 -0.104000
v -19.761101 -1.826420 -0.122523
v -19.761101 -1.617660 -0.155587
v -19.761101 -1.116800 -0.088000
v -19.761101 -1.107270 -0.236426
v -19.761101 -1.903190 -0.110363
v -19.761101 -1.031200 -0.071200
v -19.761101 -1.511730 -0.220694
v -19.761101 -1.564310 -0.227165
v -19.761101 -1.838390 -0.247461
v -19.761101 -1.920560 -0.220762
v -19.761101 -1.079830 -0.493933
v -19.761101 -1.902140 -0.355576
v -19.761101 -1.713820 -0.451531
v -19.761101 -1.628580 -0.424985
v -19.761101 -1.589850 -0.461121
v -19.761101 -1.594760 -0.512198
v -19.761101 -1.216590 -0.542027
v -19.761101 -1.253390 -0.686134
v -19.761101 -1.971400 -0.320286
v -19.761101 -1.129980 -0.552501
v -19.761101 -1.952140 -0.470698
v -19.761101 -1.685200 -0.536093
v -19.761101 -1.633200 -0.546185
v -19.761101 -2.022040 -0.419914
v -19.761101 -1.306870 -0.939516
v -19.761101 -2.046180 -0.553822
v -19.761101 -1.896720 -0.703277
v -19.761101 -1.807460 -0.704369
v -19.761101 -1.781790 -0.750704
v -19.761101 -1.802230 -0.797767
v -19.761101 -1.451790 -0.942997
v -19.761101 -1.531320 -1.068680
v -19.761101 -2.101140 -0.498858
v -19.761101 -1.372660 -0.979719
v -19.761101 -2.129300 -0.647861
v -19.761101 -1.895630 -0.792545
v -19.761101 -1.849300 -0.818211
v -19.761101 -2.180090 -0.577962
v -19.761101 -1.660480 -1.293130
v -19.761101 -2.244420 -0.697857
v -19.761101 -2.148470 -0.886181
v -19.761101 -2.063910 -0.914804
v -19.761101 -2.053810 -0.966803
v -19.761101 -2.087800 -1.005240
v -19.761101 -1.799390 -1.251660
v -19.761101 -1.913870 -1.346610
v -19.761101 -2.279710 -0.628597
v -19.761101 -1.735480 -1.311040
v -19.761101 -2.352540 -0.761606
v -19.761101 -2.175010 -0.971417
v -19.761101 -2.138880 -1.010150
v -19.761101 -2.379240 -0.679435
v -19.761101 -2.106070 -1.520170
v -19.761101 -2.477480 -0.773580
v -19.761101 -2.444410 -0.982339
v -19.761101 -2.372840 -1.035690
v -19.761101 -2.379310 -1.088270
v -19.761101 -2.423510 -1.114320
v -19.761101 -2.225360 -1.437800
v -19.761101 -2.363570 -1.492730
v -19.761101 -2.489640 -0.696806
v -19.761101 -2.182930 -1.514020
v -19.761101 -2.600000 -0.800800
v -19.761101 -2.496000 -1.055200
v -19.761101 -2.473600 -1.103200
v -19.761101 -2.600000 -0.714400
v -19.761101 -2.600000 -1.598400
v -19.761101 -2.755590 -0.982339
v -19.761101 -2.722520 -0.773580
v -19.761101 -2.704000 -1.055200
v -19.761101 -2.726400 -1.103200
v -19.761101 -2.776490 -1.114320
v -19.761101 -2.836430 -1.492730
v -19.761101 -2.688000 -1.483200
v -19.761101 -2.710360 -0.696806
v -19.761101 -2.671200 -1.568800
v -19.761101 -2.847460 -0.761606
v -19.761101 -2.827160 -1.035690
v -19.761101 -2.820690 -1.088270
v -19.761101 -2.820760 -0.679435
v -19.761101 -3.093930 -1.520170
v -19.761101 -3.051530 -0.886180
v -19.761101 -2.955580 -0.697857
v -19.761101 -3.024980 -0.971417
v -19.761101 -3.061120 -1.010150
v -19.761101 -3.112200 -1.005240
v -19.761101 -3.286130 -1.346610
v -19.761101 -3.142030 -1.383410
v -19.761101 -2.920290 -0.628597
v -19.761101 -3.152500 -1.470020
v -19.761101 -3.070700 -0.647861
v -19.761101 -3.136090 -0.914804
v -19.761101 -3.146180 -0.966803
v -19.761101 -3.019910 -0.577962
v -19.761101 -3.539520 -1.293130
v -19.761101 -3.303280 -0.703277
v -19.761101 -3.153820 -0.553822
v -19.761101 -3.304370 -0.792545
v -19.761101 -3.350700 -0.818211
v -19.761101 -3.397770 -0.797767
v -19.761101 -3.668680 -1.068680
v -19.761101 -3.543000 -1.148210
v -19.761101 -3.098860 -0.498858
v -19.761101 -3.579720 -1.227340
v -19.761101 -3.247860 -0.470698
v -19.761101 -3.392540 -0.704369
v -19.761101 -3.418210 -0.750704
v -19.761101 -3.177960 -0.419914
v -19.761101 -3.893130 -0.939516
v -19.761101 -3.297860 -0.355576
v -19.761101 -3.486180 -0.451531
v -19.761101 -3.514800 -0.536093
v -19.761101 -3.566800 -0.546185
v -19.761101 -3.605240 -0.512198
v -19.761101 -3.946610 -0.686134
v -19.761101 -3.851660 -0.800609
v -19.761101 -3.228600 -0.320286
v -19.761101 -3.911040 -0.864515
v -19.761101 -3.361610 -0.247461
v -19.761101 -3.571420 -0.424984
v -19.761101 -3.610150 -0.461121
v -19.761101 -3.279430 -0.220762
v -19.761101 -4.120170 -0.493933
v -19.761101 -3.714320 -0.176491
v -19.761101 -3.688260 -0.220694
v -19.761101 -3.635690 -0.227165
v -19.761101 -3.582340 -0.155587
v -19.761101 -3.373580 -0.122523
v -19.761101 -4.092730 -0.236425
v -19.761101 -4.037800 -0.374641
v -19.761101 -3.296810 -0.110363
v -19.761101 -4.114020 -0.417070
v -19.761101 -3.703200 -0.126400
v -19.761101 -3.655200 -0.104000
v -19.761101 -3.400800 -0.000000
v -19.761101 -3.314400 -0.000000
v -19.761101 -4.198400 -0.000000
v -19.761101 -3.703200 0.126400
v -19.761101 -3.655200 0.104000
v -19.761101 -4.083200 0.088000
v -19.761101 -4.168800 0.071200
v -19.761101 -4.289250 0.267552
v -19.761101 -4.226600 0.528515
v -19.761101 -4.123900 0.776464
v -19.761101 -3.983670 1.005290
v -19.761101 -3.809370 1.209370
v -19.761101 -3.605290 1.383670
v -19.761101 -3.376460 1.523900
v -19.761101 -3.128510 1.626600
v -19.761101 -2.867550 1.689250
v -19.761101 -2.600000 1.710310
v -19.761101 -2.332450 1.689250
v -19.761101 -2.071490 1.626600
v -19.761101 -1.823540 1.523900
v -19.761101 -1.594710 1.383670
v -19.761101 -1.390630 1.209370
v -19.761101 -1.216330 1.005290
v -19.761101 -1.076100 0.776464
v -19.761101 -0.973399 0.528515
v -19.761101 -0.910748 0.267551
v -19.761101 -0.889691 -0.000000
v -19.761101 -0.910748 -0.267551
v -19.761101 -0.973399 -0.528514
v -19.761101 -1.076100 -0.776464
v -19.761101 -1.216330 -1.005290
v -19.761101 -1.390630 -1.209370
v -19.761101 -1.594710 -1.383670
v -19.761101 -1.823540 -1.523900
v -19.761101 -2.071480 -1.626600
v -19.761101 -2.332450 -1.689250
v -19.761101 -2.600000 -1.710310
v -19.761101 -2.867550 -1.689250
v -19.761101 -3.128510 -1.626600
v -19.761101 -3.376460 -1.523900
v -19.761101 -3.605290 -1.383670
v -19.761101 -3.809370 -1.209370
v -19.761101 -3.983670 -1.005290
v -19.761101 -4.123900 -0.776464
v -19.761101 -4.226600 -0.528515
v -19.761101 -4.289250 -0.267551
v -19.761101 -4.310310 -0.000000
vt -0.578215 1.691670
vt -0.578215 1.691670
vt -0.578215 1.691670
vt -0.578215 1.691670
vt -0.578215 1.691670
vt -0.578215 1.691670
vt -0.578215 1.691670
vt -0.578215 1.691670
vt -0.578215 1.691670
vt -0.578215 1.691670
vt -0.578215 1.691670
vt -0.578215 1.691670
vt -0.578215 1.691670
vt -0.578215 1.691670
vt -0.578215 1.691670
vt -0.578215 1.691670
vt -0.578215 1.691670
vt -0.578215 1.691670
vt -0.578215 1.691670
vt -0.578215 1.691670
vt -0.578215 1.691670
vt -0.578215 1.691670
vt -0.578215 1.691670
vt -0.578215 1.691670
vt -0.578215 1.691670
vt -0.578215 1.691670
vt -0.578215 1.691670
vt -0.578215 1.691670
vt -0.578215 1.691670
vt -0.578215 1.691670
vt -0.578215 1.691670
vt -0.578215 1.691670
vt -0.578215 1.691670
vt -0.578215 1.691670
vt -0.578215 1.691670
vt -0.578215 1.691670
vt -0.578215 1.691670
vt -0.578215 1.691670
vt -0.578215 1.691670
vt -0.578215 1.691670
vt -0.578215 1.691670
vt -0.578215 1.691670
vt -0.578215 1.691670
vt -0.578215 1.691670
vt -0.578215 1.691670
vt -0.578215 1.691670
vt -0.578215 1.691670
vt -0.578215 1.691670
vt -0.578215 1.691670
vt -0.578215 1.691670
vt -0.578215 1.691670
vt -0.578215 1.691670
vt -0.578215 1.691670
vt -0.578215 1.691670
vt -0.578215 1.691670
vt -0.578215 1.691670
vt -0.578215 1.691670
vt -0.578215 1.691670
vt -0.578215 1.691670
vt -0.578215 1.691670
vt -0.578215 1.691670
vt -0.578215 1.691670
vt -0.578215 1.691670
vt -0.578215 1.691670
vt -0.578215 1.691670
vt -0.578215 1.691670
vt -0.578215 1.691670
vt -0.578215 1.691670
vt -0.578215 1.691670
vt -0.578215 1.691670
vt -0.578215 1.691670
vt -0.578215 1.691670
vt -0.578215 1.691670
vt -0.578215 1.691670
vt -0.578215 1.691670
vt -0.578215 1.691670
vt -0.578215 1.691670
vt -0.578215 1.691670
vt -0.578215 1.691670
vt -0.578215 1.691670
vt -0.578215 1.691670
vt -0.578215 1.691670
vt -0.578215 1.691670
vt -0.578215 1.691670
vt -0.578215 1.691670
vt -0.578215 1.691670
vt -0.578215 1.691670
vt -0.578215 1.691670
vt -0.578215 1.691670
vt -0.578215 1.691670
vt -0.578215 1.691670
vt -0.578215 1.691670
vt -0.578215 1.691670
vt -0.578215 1.691670
vt -0.578215 1.691670
vt -0.578215 1.691670
vt -0.578215 1.691670
vt -0.578215 1.691670
vt -0.578215 1.691670
vt -0.578215 1.691670
vt -0.578215 1.691670
vt -0.578215 1.691670
vt -0.578215 1.691670
vt -0.578215 1.691670
vt -0.578215 1.691670
vt -0.578215 1.691670
vt -0.578215 1.691670
vt -0.578215 1.691670
vt -0.578215 1.691670
vt -0.578215 1.691670
vt -0.578215 1.691670
vt -0.578215 1.691670
vt -0.578215 1.691670
vt -0.578215 1.691670
vt -0.578215 1.691670
vt -0.578215 1.691670
vt -0.578215 1.691670
vt -0.578215 1.691670
vt -0.578215 1.691670
vt -0.578215 1.691670
vt -0.578215 1.691670
vt -0.578215 1.691670
vt -0.578215 1.691670
vt -0.578215 1.691670
vt -0.578215 1.691670
vt -0.578215 1.691670
vt -0.578215 1.691670
vt -0.578215 1.691670
vt -0.578215 1.691670
vt -0.578215 1.691670
vt -0.578215 1.691670
vt -0.578215 1.691670
vt -0.578215 1.691670
vt -0.578215 1.691670
vt -0.578215 1.691670
vt -0.578215 1.691670
vt -0.578215 1.691670
vt -0.578215 1.691670
vt -0.578215 1.691670
vt -0.578215 1.691670
vt -0.578215 1.691670
vt -0.578215 1.691670
vt -0.578215 1.691670
vt -0.578215 1.691670
vt -0.578215 1.691670
vt -0.578215 1.691670
vt -0.578215 1.691670
vt -0.578215 1.691670
vt -0.578215 1.691670
vt -0.578215 1.691670
vt -0.578215 1.691670
vt -0.578215 1.691670
vt -0.578215 1.691670
vt -0.578215 1.691670
vt -0.578215 1.691670
vt -0.578215 1.691670
vt -0.578215 1.691670
vt -0.578215 1.691670
vt -0.578215 1.691670
vt -0.578215 1.691670
vt -0.578215 1.691670
vt -0.578215 1.691670
vt -0.578215 1.691670
vt -0.578215 1.691670
vt -0.578215 1.691670
vt -0.578215 1.691670
vt -0.578215 1.691670
vt -0.578215 1.691670
vt -0.578215 1.691670
vt -0.578215 1.691670
vt -0.578215 1.691670
vt -0.578215 1.691670
vt -0.578215 1.691670
vt -0.578215 1.691670
vt -0.578215 1.691670
vt -0.578215 1.691670
vt -0.578215 1.691670
vt -0.578215 1.691670
vt -0.578215 1.691670
vt -0.578215 1.691670
vt -0.578215 1.691670
vt -0.578215 1.691670
vt -0.578215 1.691670
vt -0.578215 1.691670
vt -0.578215 1.691670
vt -0.578215 1.691670
vt -0.578215 1.691670
vt -0.578215 1.691670
vt -0.578215 1.691670
vt -0.578215 1.691670
vt -0.578215 1.691670
vt -0.578215 1.691670
vt -0.578215 1.691670
vt -0.578215 1.691670
vt -0.578215 1.691670
vt -0.578215 1.691670
vt -0.578215 1.691670
vt -0.578215 1.691670
vt -0.578215 1.691670
vt -0.578215 1.691670
vt -0.578215 1.691670
vt -0.578215 1.691670
vt -0.578215 1.691670
vt -0.578215 1.691670
vt -0.578215 1.691670
vt -0.578215 1.691670
vt -0.578215 1.691670
vt -0.578215 1.691670
vt -0.578215 1.691670
vt -0.578215 1.691670
vt -0.578215 1.691670
vt -0.578215 1.691670
vt -0.578215 1.691670
vt -0.578215 1.691670
vt -0.578215 1.691670
vt -0.578215 1.691670
vt -0.578215 1.691670
vt -0.578215 1.691670
vt -0.578215 1.691670
vt -0.578215 1.691670
vt -0.578215 1.691670
vt -0.578215 1.691670
vt -0.578215 1.691670
vt -0.578215 1.691670
vt -0.578215 1.691670
vt -0.578215 1.691670
vt -0.578215 1.691670
vt -0.578215 1.691670
vt -0.578215 1.691670
vt -0.578215 1.691670
vt -0.578215 1.691670
vt -0.578215 1.691670
vt -0.578215 1.691670
vt -0.578215 1.691670
vt -0.578215 1.691670
vt -0.578215 1.691670
vt -0.578215 1.691670
vt -0.578215 1.691670
vt -0.578215 1.691670
vt -0.578215 1.691670
vt -0.578215 1.691670
vt -0.578215 1.691670
vt -0.578215 1.691670
vt -0.578215 1.691670
vt -0.578215 1.691670
vt -0.578215 1.691670
vt -0.578215 1.691670
vt -0.578215 1.691670
vt -0.578215 1.691670
vt -0.578215 1.691670
vt -0.578215 1.691670
vt -0.578215 1.691670
vt -0.578215 1.691670
vt -0.578215 1.691670
vt -0.578215 1.691670
vt -0.578215 1.691670
vt -0.578215 1.691670
vt -0.578215 1.691670
vt -0.578215 1.691670
vt -0.578215 1.691670
vt -0.578215 1.691670
vt -0.578215 1.691670
vt -0.578215 1.691670
vt -0.578215 1.691670
vt -0.578215 1.691670
vt -0.578215 1.691670
vt -0.578215 1.691670
vt -0.578215 1.691670
vt -0.578215 1.691670
vt -0.578215 1.691670
vt -0.578215 1.691670
vt -0.578215 1.691670
vt -0.578215 1.691670
vt -0.578215 1.691670
vt -0.578215 1.691670
vt -0.578215 1.691670
vt -0.578215 1.691670
vt -0.578215 1.691670
vt -0.578215 1.691670
vt -0.578215 1.691670
vt -0.578215 1.691670
vt -0.578215 1.691670
vt -0.578215 1.691670
vt -0.578215 1.691670
vt -0.578215 1.691670
vt -0.578215 1.691670
vt -0.578215 1.691670
vt -0.578215 1.691670
vt -0.578215 1.691670
vt -0.578215 1.691670
vt -0.578215 1.691670
vt -0.578215 1.691670
vt -0.578215 1.691670
vt -0.578215 1.691670
vt -0.578215 1.691670
vt -0.578215 1.691670
vt -0.578215 1.691670
vt -0.578215 1.691670
vt -0.578215 1.691670
vt -0.578215 1.691670
vt -0.578215 1.691670
vt -0.578215 1.691670
vt -0.578215 1.691670
vt -0.578215 1.691670
vt -0.578215 1.691670
vt -0.578215 1.691670
vt -0.578215 1.691670
vt -0.578215 1.691670
vt -0.578215 1.691670
vt -0.578215 1.691670
vt -0.578215 1.691670
vt -0.578215 1.691670
vt -0.578215 1.691670
vt -0.578215 1.691670
vt -0.578215 1.691670
vt -0.578215 1.691670
vt -0.578215 1.691670
vt -0.578215 1.691670
vt -0.578215 1.691670
vt -0.578215 1.691670
vn 1.0000 -0.0000 0.0000
vn 1.0000 -0.0001 0.0000
vn 1.0000 0.0001 0.0000
s off
f 4/1/1 2/2/1 3/3/1
f 4/1/1 1/4/1 2/2/1
f 6/5/1 8/6/1 5/7/1
f 6/5/1 9/8/1 8/6/1
f 15/9/1 13/10/1 12/11/1
f 15/9/2 14/12/2 13/10/2
f 8/6/1 11/13/1 5/7/1
f 8/6/1 18/14/1 11/13/1
f 21/15/1 15/9/1 12/11/1
f 21/15/1 22/16/1 15/9/1
f 11/13/1 23/17/1 20/18/1
f 11/13/1 18/14/1 23/17/1
f 29/19/1 27/20/1 26/21/1
f 29/19/2 28/22/2 27/20/2
f 23/17/1 25/23/1 20/18/1
f 23/17/1 32/24/1 25/23/1
f 35/25/1 29/19/1 26/21/1
f 35/25/1 36/26/1 29/19/1
f 25/23/1 37/27/1 34/28/1
f 25/23/1 32/24/1 37/27/1
f 43/29/1 41/30/1 40/31/1
f 43/29/1 42/32/1 41/30/1
f 37/27/1 39/33/1 34/28/1
f 37/27/1 46/34/1 39/33/1
f 49/35/1 43/29/1 40/31/1
f 49/35/1 50/36/1 43/29/1
f 39/33/1 51/37/1 48/38/1
f 39/33/1 46/34/1 51/37/1
f 57/39/1 55/40/1 54/41/1
f 57/39/1 56/42/1 55/40/1
f 51/37/1 53/43/1 48/38/1
f 51/37/1 60/44/1 53/43/1
f 63/45/1 57/39/1 54/41/1
f 63/45/2 64/46/2 57/39/2
f 53/43/1 65/47/1 62/48/1
f 53/43/1 60/44/1 65/47/1
f 71/49/1 69/50/1 67/51/1
f 71/49/3 70/52/3 69/50/3
f 65/47/1 68/53/1 62/48/1
f 65/47/1 74/54/1 68/53/1
f 77/55/1 71/49/1 67/51/1
f 77/55/1 78/56/1 71/49/1
f 68/53/1 79/57/1 76/58/1
f 68/53/1 74/54/1 79/57/1
f 85/59/1 83/60/1 81/61/1
f 85/59/2 84/62/2 83/60/2
f 79/57/1 82/63/1 76/58/1
f 79/57/1 88/64/1 82/63/1
f 91/65/1 85/59/1 81/61/1
f 91/65/1 92/66/1 85/59/1
f 82/63/1 93/67/1 90/68/1
f 82/63/1 88/64/1 93/67/1
f 99/69/1 97/70/1 95/71/1
f 99/69/1 98/72/1 97/70/1
f 93/67/1 96/73/1 90/68/1
f 93/67/1 102/74/1 96/73/1
f 105/75/1 99/69/1 95/71/1
f 105/75/3 106/76/3 99/69/3
f 96/73/1 107/77/1 104/78/1
f 96/73/1 102/74/1 107/77/1
f 113/79/1 111/80/1 110/81/1
f 113/79/1 112/82/1 111/80/1
f 107/77/1 109/83/1 104/78/1
f 107/77/1 116/84/1 109/83/1
f 119/85/1 113/79/1 110/81/1
f 119/85/3 120/86/3 113/79/3
f 109/83/1 121/87/1 118/88/1
f 109/83/1 116/84/1 121/87/1
f 123/89/1 125/90/1 126/91/1
f 123/89/3 124/92/3 125/90/3
f 121/87/1 127/93/1 118/88/1
f 121/87/1 130/94/1 127/93/1
f 133/95/1 123/89/1 126/91/1
f 133/95/3 132/96/3 123/89/3
f 127/93/1 135/97/1 134/98/1
f 127/93/1 130/94/1 135/97/1
f 137/99/1 139/100/1 141/101/1
f 137/99/1 138/102/1 139/100/1
f 135/97/1 140/103/1 134/98/1
f 135/97/1 144/104/1 140/103/1
f 147/105/1 137/99/1 141/101/1
f 147/105/3 146/106/3 137/99/3
f 140/103/1 149/107/1 148/108/1
f 140/103/1 144/104/1 149/107/1
f 155/109/1 153/110/1 152/111/1
f 155/109/3 154/112/3 153/110/3
f 149/107/1 151/113/1 148/108/1
f 149/107/1 158/114/1 151/113/1
f 161/115/1 155/109/1 152/111/1
f 161/115/1 162/116/1 155/109/1
f 151/113/1 163/117/1 160/118/1
f 151/113/1 158/114/1 163/117/1
f 169/119/1 167/120/1 166/121/1
f 169/119/3 168/122/3 167/120/3
f 163/117/1 165/123/1 160/118/1
f 163/117/1 172/124/1 165/123/1
f 175/125/1 169/119/1 166/121/1
f 175/125/1 176/126/1 169/119/1
f 165/123/1 177/127/1 174/128/1
f 165/123/1 172/124/1 177/127/1
f 183/129/1 181/130/1 180/131/1
f 183/129/1 182/132/1 181/130/1
f 177/127/1 179/133/1 174/128/1
f 177/127/1 186/134/1 179/133/1
f 189/135/1 183/129/1 180/131/1
f 189/135/1 190/136/1 183/129/1
f 179/133/1 191/137/1 188/138/1
f 179/133/1 186/134/1 191/137/1
f 197/139/1 195/140/1 194/141/1
f 197/139/1 196/142/1 195/140/1
f 191/137/1 193/143/1 188/138/1
f 191/137/1 200/144/1 193/143/1
f 203/145/1 197/139/1 194/141/1
f 203/145/3 204/146/3 197/139/3
f 193/143/1 205/147/1 202/148/1
f 193/143/1 200/144/1 205/147/1
f 211/149/1 209/150/1 207/151/1
f 211/149/2 210/152/2 209/150/2
f 205/147/1 208/153/1 202/148/1
f 205/147/1 214/154/1 208/153/1
f 217/155/1 211/149/1 207/151/1
f 217/155/1 218/156/1 211/149/1
f 208/153/1 219/157/1 216/158/1
f 208/153/1 214/154/1 219/157/1
f 225/159/1 223/160/1 221/161/1
f 225/159/3 224/162/3 223/160/3
f 219/157/1 222/163/1 216/158/1
f 219/157/1 228/164/1 222/163/1
f 231/165/1 225/159/1 221/161/1
f 231/165/1 232/166/1 225/159/1
f 222/163/1 233/167/1 230/168/1
f 222/163/1 228/164/1 233/167/1
f 239/169/1 237/170/1 235/171/1
f 239/169/1 238/172/1 237/170/1
f 233/167/1 236/173/1 230/168/1
f 233/167/1 242/174/1 236/173/1
f 245/175/1 239/169/1 235/171/1
f 245/175/2 246/176/2 239/169/2
f 236/173/1 247/177/1 244/178/1
f 236/173/1 242/174/1 247/177/1
f 253/179/1 251/180/1 250/181/1
f 253/179/1 252/182/1 251/180/1
f 247/177/1 249/183/1 244/178/1
f 247/177/1 256/184/1 249/183/1
f 259/185/1 253/179/1 250/181/1
f 259/185/1 260/186/1 253/179/1
f 249/183/1 261/187/1 258/188/1
f 249/183/1 256/184/1 261/187/1
f 263/189/1 265/190/1 266/191/1
f 263/189/1 264/192/1 265/190/1
f 261/187/1 267/193/1 258/188/1
f 261/187/1 270/194/1 267/193/1
f 273/195/1 263/189/1 266/191/1
f 273/195/2 272/196/2 263/189/2
f 267/193/1 275/197/1 274/198/1
f 267/193/1 270/194/1 275/197/1
f 2/2/1 278/199/1 3/3/1
f 2/2/1 277/200/1 278/199/1
f 275/197/1 6/5/1 274/198/1
f 275/197/1 9/8/1 6/5/1
f 16/201/1 17/202/1 19/203/1
f 282/204/1 17/202/1 283/205/1
f 282/204/1 19/203/1 17/202/1
f 10/206/1 19/203/1 282/204/1
f 284/207/1 31/208/1 285/209/1
f 33/210/1 31/208/1 284/207/1
f 30/211/1 31/208/1 33/210/1
f 24/212/1 33/210/1 284/207/1
f 287/213/1 286/214/1 45/215/1
f 45/215/1 286/214/1 47/216/1
f 38/217/1 47/216/1 286/214/1
f 44/218/1 45/215/1 47/216/1
f 61/219/1 288/220/1 52/221/1
f 289/222/1 288/220/1 59/223/1
f 288/220/1 61/219/1 59/223/1
f 58/224/1 59/223/1 61/219/1
f 66/225/1 291/226/1 290/227/1
f 75/228/1 291/226/1 66/225/1
f 291/226/1 75/228/1 72/229/1
f 73/230/1 72/229/1 75/228/1
f 80/231/1 293/232/1 292/233/1
f 89/234/1 293/232/1 80/231/1
f 87/235/1 293/232/1 89/234/1
f 86/236/1 293/232/1 87/235/1
f 295/237/1 101/238/1 100/239/1
f 101/238/1 295/237/1 103/240/1
f 103/240/1 295/237/1 94/241/1
f 94/241/1 295/237/1 294/242/1
f 114/243/1 297/244/1 115/245/1
f 115/245/1 297/244/1 117/246/1
f 117/246/1 297/244/1 108/247/1
f 108/247/1 297/244/1 296/248/1
f 128/249/1 299/250/1 129/251/1
f 129/251/1 299/250/1 131/252/1
f 131/252/1 299/250/1 122/253/1
f 122/253/1 299/250/1 298/254/1
f 143/255/1 301/256/1 142/257/1
f 142/257/1 301/256/1 145/258/1
f 145/258/3 301/256/3 136/259/3
f 136/259/1 301/256/1 300/260/1
f 156/261/1 157/262/1 159/263/1
f 302/264/1 157/262/1 303/265/1
f 302/264/1 159/263/1 157/262/1
f 150/266/1 159/263/1 302/264/1
f 304/267/1 171/268/1 305/269/1
f 173/270/1 171/268/1 304/267/1
f 170/271/1 171/268/1 173/270/1
f 164/272/1 173/270/1 304/267/1
f 307/273/1 306/274/1 185/275/1
f 185/275/1 306/274/1 187/276/1
f 178/277/1 187/276/1 306/274/1
f 184/278/1 185/275/1 187/276/1
f 201/279/1 308/280/1 192/281/1
f 309/282/1 308/280/1 199/283/1
f 308/280/1 201/279/1 199/283/1
f 198/284/1 199/283/1 201/279/1
f 206/285/1 311/286/1 310/287/1
f 215/288/1 311/286/1 206/285/1
f 311/286/1 215/288/1 212/289/1
f 213/290/1 212/289/1 215/288/1
f 220/291/1 313/292/1 312/293/1
f 229/294/1 313/292/1 220/291/1
f 227/295/1 313/292/1 229/294/1
f 226/296/1 313/292/1 227/295/1
f 315/297/1 241/298/1 240/299/1
f 241/298/1 315/297/1 243/300/1
f 243/300/1 315/297/1 234/301/1
f 234/301/1 315/297/1 314/302/1
f 254/303/1 317/304/1 255/305/1
f 255/305/1 317/304/1 257/306/1
f 257/306/1 317/304/1 248/307/1
f 248/307/1 317/304/1 316/308/1
f 268/309/1 319/310/1 269/311/1
f 269/311/1 319/310/1 271/312/1
f 271/312/1 319/310/1 262/313/1
f 262/313/1 319/310/1 318/314/1
f 279/315/1 7/316/1 280/317/1
f 320/318/1 7/316/1 281/319/1
f 320/318/1 280/317/1 7/316/1
f 276/320/1 280/317/1 320/318/1
