# Blender v2.90.0 OBJ File: 'simple_pool.blend'
# www.blender.org
o ground_Plane.001
v -50.000000 -1.500000 50.000000
v 50.000000 -1.500000 50.000000
v -50.000000 -1.500000 -50.000000
v 50.000000 -1.500000 -50.000000
v 0.975643 -1.500000 -9.905869
v 0.000000 -1.500000 -9.953800
v -0.975677 -1.500000 -9.905867
v 1.941890 -1.500000 -9.762540
v -1.941922 -1.500000 -9.762534
v 2.889436 -1.500000 -9.525193
v -2.889465 -1.500000 -9.525184
v 4.692189 -1.500000 -8.778467
v 3.809155 -1.500000 -9.196112
v -3.809180 -1.500000 -9.196101
v 6.314624 -1.500000 -7.694392
v 7.038399 -1.500000 -7.038400
v 5.530035 -1.500000 -8.276282
v -4.692212 -1.500000 -8.778456
v -5.530055 -1.500000 -8.276268
v -6.314641 -1.500000 -7.694377
v -7.038414 -1.500000 -7.038385
v 9.905869 -1.500000 -0.975642
v 9.953800 -1.500000 0.000002
v 9.762541 -1.500000 -1.941889
v 9.196112 -1.500000 -3.809154
v 9.525193 -1.500000 -2.889435
v 8.778467 -1.500000 -4.692189
v 8.276282 -1.500000 -5.530036
v 7.694391 -1.500000 -6.314624
v -7.694403 -1.500000 -6.314610
v -8.276292 -1.500000 -5.530022
v -8.778475 -1.500000 -4.692176
v -9.196117 -1.500000 -3.809143
v -9.525196 -1.500000 -2.889425
v -9.762542 -1.500000 -1.941882
v -9.905870 -1.500000 -0.975636
v -9.953800 -1.500000 0.000005
v 9.905869 -1.500000 0.975645
v 9.762540 -1.500000 1.941892
v 9.525191 -1.500000 2.889438
v 9.196111 -1.500000 3.809157
v 8.778466 -1.500000 4.692192
v 8.276280 -1.500000 5.530038
v 7.694389 -1.500000 6.314627
v -7.694397 -1.500000 6.314617
v -8.276286 -1.500000 5.530029
v -9.196114 -1.500000 3.809151
v -8.778471 -1.500000 4.692184
v -9.905869 -1.500000 0.975646
v -9.762540 -1.500000 1.941891
v -9.525193 -1.500000 2.889434
v 7.038396 -1.500000 7.038403
v 6.314620 -1.500000 7.694395
v 5.530030 -1.500000 8.276285
v 4.692183 -1.500000 8.778471
v 3.809148 -1.500000 9.196115
v 2.889429 -1.500000 9.525194
v 1.941883 -1.500000 9.762542
v 0.975636 -1.500000 9.905870
v -0.000008 -1.500000 9.953800
v -0.975651 -1.500000 9.905869
v -1.941899 -1.500000 9.762539
v -2.889444 -1.500000 9.525190
v -3.809163 -1.500000 9.196108
v -4.692197 -1.500000 8.778463
v -5.530044 -1.500000 8.276277
v -6.314632 -1.500000 7.694385
v -7.038408 -1.500000 7.038391
vt 0.000000 0.000000
vt 0.500000 0.400462
vt 0.490243 0.400941
vt 0.500000 0.599538
vt 0.509756 0.599059
vt 1.000000 1.000000
vt 1.000000 0.000000
vt 0.599538 0.500000
vt 0.599059 0.490244
vt 0.597625 0.480581
vt 0.400941 0.490244
vt 0.400462 0.500000
vt 0.402375 0.480581
vt 0.595252 0.471106
vt 0.591961 0.461908
vt 0.404748 0.471106
vt 0.408039 0.461908
vt 0.587785 0.453078
vt 0.582763 0.444700
vt 0.412215 0.453078
vt 0.417237 0.444700
vt 0.576944 0.436854
vt 0.570384 0.429616
vt 0.423056 0.436854
vt 0.429616 0.429616
vt 0.563146 0.423056
vt 0.555300 0.417237
vt 0.436854 0.423056
vt 0.444700 0.417237
vt 0.546922 0.412215
vt 0.538092 0.408039
vt 0.453078 0.412215
vt 0.461908 0.408039
vt 0.528894 0.404748
vt 0.519419 0.402375
vt 0.471106 0.404748
vt 0.480581 0.402375
vt 0.509756 0.400941
vt 0.000000 1.000000
vt 0.400941 0.509756
vt 0.402375 0.519419
vt 0.599059 0.509756
vt 0.404748 0.528894
vt 0.597625 0.519419
vt 0.595252 0.528894
vt 0.408039 0.538091
vt 0.412215 0.546922
vt 0.591961 0.538092
vt 0.587785 0.546922
vt 0.417237 0.555300
vt 0.423056 0.563146
vt 0.582763 0.555300
vt 0.576944 0.563146
vt 0.429616 0.570384
vt 0.436854 0.576944
vt 0.570384 0.570384
vt 0.563146 0.576944
vt 0.444699 0.582763
vt 0.453078 0.587785
vt 0.555300 0.582763
vt 0.546922 0.587785
vt 0.461908 0.591961
vt 0.471105 0.595252
vt 0.538092 0.591961
vt 0.528894 0.595252
vt 0.480581 0.597625
vt 0.490243 0.599059
vt 0.519419 0.597625
vn -0.0000 1.0000 -0.0000
s off
f 1/1/1 60/2/1 61/3/1
f 6/4/1 5/5/1 4/6/1
f 2/7/1 23/8/1 38/9/1
f 2/7/1 38/9/1 39/10/1
f 49/11/1 37/12/1 1/1/1
f 50/13/1 49/11/1 1/1/1
f 2/7/1 39/10/1 40/14/1
f 2/7/1 40/14/1 41/15/1
f 51/16/1 50/13/1 1/1/1
f 47/17/1 51/16/1 1/1/1
f 2/7/1 41/15/1 42/18/1
f 2/7/1 42/18/1 43/19/1
f 48/20/1 47/17/1 1/1/1
f 46/21/1 48/20/1 1/1/1
f 2/7/1 43/19/1 44/22/1
f 2/7/1 44/22/1 52/23/1
f 45/24/1 46/21/1 1/1/1
f 68/25/1 45/24/1 1/1/1
f 2/7/1 52/23/1 53/26/1
f 2/7/1 53/26/1 54/27/1
f 67/28/1 68/25/1 1/1/1
f 66/29/1 67/28/1 1/1/1
f 1/1/1 2/7/1 60/2/1
f 2/7/1 54/27/1 55/30/1
f 2/7/1 55/30/1 56/31/1
f 65/32/1 66/29/1 1/1/1
f 64/33/1 65/32/1 1/1/1
f 2/7/1 56/31/1 57/34/1
f 2/7/1 57/34/1 58/35/1
f 63/36/1 64/33/1 1/1/1
f 62/37/1 63/36/1 1/1/1
f 2/7/1 58/35/1 59/38/1
f 2/7/1 59/38/1 60/2/1
f 61/3/1 62/37/1 1/1/1
f 1/1/1 37/12/1 3/39/1
f 37/12/1 36/40/1 3/39/1
f 36/40/1 35/41/1 3/39/1
f 23/8/1 2/7/1 4/6/1
f 22/42/1 23/8/1 4/6/1
f 3/39/1 35/41/1 34/43/1
f 24/44/1 22/42/1 4/6/1
f 26/45/1 24/44/1 4/6/1
f 3/39/1 34/43/1 33/46/1
f 3/39/1 33/46/1 32/47/1
f 25/48/1 26/45/1 4/6/1
f 27/49/1 25/48/1 4/6/1
f 3/39/1 32/47/1 31/50/1
f 3/39/1 31/50/1 30/51/1
f 28/52/1 27/49/1 4/6/1
f 29/53/1 28/52/1 4/6/1
f 3/39/1 30/51/1 21/54/1
f 3/39/1 21/54/1 20/55/1
f 16/56/1 29/53/1 4/6/1
f 15/57/1 16/56/1 4/6/1
f 4/6/1 3/39/1 6/4/1
f 3/39/1 20/55/1 19/58/1
f 3/39/1 19/58/1 18/59/1
f 17/60/1 15/57/1 4/6/1
f 12/61/1 17/60/1 4/6/1
f 3/39/1 18/59/1 14/62/1
f 3/39/1 14/62/1 11/63/1
f 13/64/1 12/61/1 4/6/1
f 10/65/1 13/64/1 4/6/1
f 3/39/1 11/63/1 9/66/1
f 3/39/1 9/66/1 7/67/1
f 8/68/1 10/65/1 4/6/1
f 5/5/1 8/68/1 4/6/1
f 3/39/1 7/67/1 6/4/1
