# Blender v2.90.0 OBJ File: 'simple_pool.blend'
# www.blender.org
o pool_Cylinder
v 0.000000 -3.000000 -8.000000
v 0.000000 0.500000 -8.000000
v 0.784137 -3.000000 -7.961478
v 0.784137 0.500000 -7.961478
v 1.560723 -3.000000 -7.846282
v 1.560723 0.500000 -7.846282
v 2.322277 -3.000000 -7.655523
v 2.322277 0.500000 -7.655523
v 3.061468 -3.000000 -7.391036
v 3.061468 0.500000 -7.391036
v 3.771174 -3.000000 -7.055370
v 3.771174 0.500000 -7.055370
v 4.444562 -3.000000 -6.651757
v 4.444562 0.500000 -6.651757
v 5.075146 -3.000000 -6.184084
v 5.075146 0.500000 -6.184084
v 5.656854 -3.000000 -5.656855
v 5.656854 0.500000 -5.656855
v 6.184083 -3.000000 -5.075147
v 6.184083 0.500000 -5.075147
v 6.651757 -3.000000 -4.444562
v 6.651757 0.500000 -4.444562
v 7.055370 -3.000000 -3.771174
v 7.055370 0.500000 -3.771174
v 7.391036 -3.000000 -3.061467
v 7.391036 0.500000 -3.061467
v 7.655523 -3.000000 -2.322277
v 7.655523 0.500000 -2.322277
v 7.846282 -3.000000 -1.560722
v 7.846282 0.500000 -1.560722
v 7.961478 -3.000000 -0.784136
v 7.961478 0.500000 -0.784136
v 8.000000 -3.000000 0.000001
v 8.000000 0.500000 0.000001
v 7.961478 -3.000000 0.784139
v 7.961478 0.500000 0.784139
v 7.846282 -3.000000 1.560724
v 7.846282 0.500000 1.560724
v 7.655522 -3.000000 2.322280
v 7.655522 0.500000 2.322280
v 7.391035 -3.000000 3.061470
v 7.391035 0.500000 3.061470
v 7.055369 -3.000000 3.771176
v 7.055369 0.500000 3.771176
v 6.651755 -3.000000 4.444564
v 6.651755 0.500000 4.444564
v 6.184082 -3.000000 5.075149
v 6.184082 0.500000 5.075149
v 5.656851 -3.000000 5.656857
v 5.656851 0.500000 5.656857
v 5.075143 -3.000000 6.184086
v 5.075143 0.500000 6.184086
v 4.444558 -3.000000 6.651760
v 4.444558 0.500000 6.651760
v 3.771170 -3.000000 7.055372
v 3.771170 0.500000 7.055372
v 3.061463 -3.000000 7.391038
v 3.061463 0.500000 7.391038
v 2.322272 -3.000000 7.655524
v 2.322272 0.500000 7.655524
v 1.560717 -3.000000 7.846283
v 1.560717 0.500000 7.846283
v 0.784131 -3.000000 7.961478
v 0.784131 0.500000 7.961478
v -0.000006 -3.000000 8.000000
v -0.000006 0.500000 8.000000
v -0.784144 -3.000000 7.961477
v -0.784144 0.500000 7.961477
v -1.560730 -3.000000 7.846281
v -1.560730 0.500000 7.846281
v -2.322284 -3.000000 7.655520
v -2.322284 0.500000 7.655520
v -3.061475 -3.000000 7.391033
v -3.061475 0.500000 7.391033
v -3.771181 -3.000000 7.055367
v -3.771181 0.500000 7.055367
v -4.444569 -3.000000 6.651752
v -4.444569 0.500000 6.651752
v -5.075153 -3.000000 6.184078
v -5.075153 0.500000 6.184078
v -5.656861 -3.000000 5.656848
v -5.656861 0.500000 5.656848
v -6.184088 -3.000000 5.075140
v -6.184088 0.500000 5.075140
v -6.651760 -3.000000 4.444557
v -6.651760 0.500000 4.444557
v -7.055372 -3.000000 3.771170
v -7.055372 0.500000 3.771170
v -7.391037 -3.000000 3.061465
v -7.391037 0.500000 3.061465
v -7.655523 -3.000000 2.322276
v -7.655523 0.500000 2.322276
v -7.846282 -3.000000 1.560723
v -7.846282 0.500000 1.560723
v -7.961478 -3.000000 0.784139
v -7.961478 0.500000 0.784139
v -8.000000 -3.000000 0.000004
v -8.000000 0.500000 0.000004
v -7.961478 -3.000000 -0.784132
v -7.961478 0.500000 -0.784132
v -7.846283 -3.000000 -1.560716
v -7.846283 0.500000 -1.560716
v -7.655525 -3.000000 -2.322269
v -7.655525 0.500000 -2.322269
v -7.391040 -3.000000 -3.061458
v -7.391040 0.500000 -3.061458
v -7.055376 -3.000000 -3.771164
v -7.055376 0.500000 -3.771164
v -6.651764 -3.000000 -4.444551
v -6.651764 0.500000 -4.444551
v -6.184093 -3.000000 -5.075135
v -6.184093 0.500000 -5.075135
v -5.656866 -3.000000 -5.656843
v -5.656866 0.500000 -5.656843
v -5.075160 -3.000000 -6.184072
v -5.075160 0.500000 -6.184072
v -4.444578 -3.000000 -6.651746
v -4.444578 0.500000 -6.651746
v -3.771193 -3.000000 -7.055360
v -3.771193 0.500000 -7.055360
v -3.061488 -3.000000 -7.391027
v -3.061488 0.500000 -7.391027
v -2.322301 -3.000000 -7.655516
v -2.322301 0.500000 -7.655516
v -1.560748 -3.000000 -7.846277
v -1.560748 0.500000 -7.846277
v -0.784165 -3.000000 -7.961475
v -0.784165 0.500000 -7.961475
vt 0.511156 0.273524
vt 0.726476 0.011156
vt 0.988844 0.226476
vt 0.773524 0.488844
vt 0.750000 0.490000
vt 0.726475 0.488844
vt 0.703178 0.485388
vt 0.680331 0.479665
vt 0.658155 0.471731
vt 0.597745 0.435522
vt 0.636864 0.461661
vt 0.616663 0.449552
vt 0.580294 0.419705
vt 0.564477 0.402254
vt 0.550447 0.383337
vt 0.538339 0.363135
vt 0.528269 0.341844
vt 0.520334 0.319668
vt 0.514611 0.296821
vt 0.510000 0.250000
vt 0.511156 0.226476
vt 0.514612 0.203178
vt 0.520334 0.180332
vt 0.528269 0.158156
vt 0.538339 0.136865
vt 0.550447 0.116663
vt 0.564477 0.097746
vt 0.580294 0.080295
vt 0.597745 0.064478
vt 0.616663 0.050447
vt 0.636865 0.038339
vt 0.658156 0.028269
vt 0.680331 0.020334
vt 0.703178 0.014612
vt 0.750000 0.010000
vt 0.773524 0.011156
vt 0.796821 0.014611
vt 0.819668 0.020334
vt 0.841844 0.028269
vt 0.863135 0.038339
vt 0.883337 0.050447
vt 0.902254 0.064477
vt 0.919706 0.080294
vt 0.961661 0.136865
vt 0.935522 0.097746
vt 0.949553 0.116663
vt 0.971731 0.158156
vt 0.979666 0.180332
vt 0.985388 0.203178
vt 0.979666 0.319668
vt 0.971731 0.341844
vt 0.935522 0.402254
vt 0.961661 0.363135
vt 0.949553 0.383337
vt 0.919706 0.419706
vt 0.863135 0.461661
vt 0.902254 0.435522
vt 0.883337 0.449553
vt 0.841844 0.471731
vt 0.819668 0.479666
vt 0.796822 0.485388
vt 0.988844 0.273524
vt 0.984375 0.500000
vt 1.000000 1.000000
vt 1.000000 0.500000
vt 0.968750 0.500000
vt 0.984375 1.000000
vt 0.953125 0.500000
vt 0.968750 1.000000
vt 0.937500 0.500000
vt 0.953125 1.000000
vt 0.921875 0.500000
vt 0.937500 1.000000
vt 0.906250 0.500000
vt 0.921875 1.000000
vt 0.890625 0.500000
vt 0.906250 1.000000
vt 0.875000 0.500000
vt 0.890625 1.000000
vt 0.859375 0.500000
vt 0.875000 1.000000
vt 0.843750 0.500000
vt 0.859375 1.000000
vt 0.828125 0.500000
vt 0.843750 1.000000
vt 0.812500 0.500000
vt 0.828125 1.000000
vt 0.796875 0.500000
vt 0.812500 1.000000
vt 0.781250 0.500000
vt 0.796875 1.000000
vt 0.765625 0.500000
vt 0.781250 1.000000
vt 0.750000 0.500000
vt 0.765625 1.000000
vt 0.734375 0.500000
vt 0.750000 1.000000
vt 0.718750 0.500000
vt 0.734375 1.000000
vt 0.703125 0.500000
vt 0.718750 1.000000
vt 0.687500 0.500000
vt 0.703125 1.000000
vt 0.671875 0.500000
vt 0.687500 1.000000
vt 0.656250 0.500000
vt 0.671875 1.000000
vt 0.640625 0.500000
vt 0.656250 1.000000
vt 0.625000 0.500000
vt 0.640625 1.000000
vt 0.609375 0.500000
vt 0.625000 1.000000
vt 0.593750 0.500000
vt 0.609375 1.000000
vt 0.578125 0.500000
vt 0.593750 1.000000
vt 0.562500 0.500000
vt 0.578125 1.000000
vt 0.546875 0.500000
vt 0.562500 1.000000
vt 0.531250 0.500000
vt 0.546875 1.000000
vt 0.515625 0.500000
vt 0.531250 1.000000
vt 0.500000 0.500000
vt 0.515625 1.000000
vt 0.484375 0.500000
vt 0.500000 1.000000
vt 0.468750 0.500000
vt 0.484375 1.000000
vt 0.453125 0.500000
vt 0.468750 1.000000
vt 0.437500 0.500000
vt 0.453125 1.000000
vt 0.421875 0.500000
vt 0.437500 1.000000
vt 0.406250 0.500000
vt 0.421875 1.000000
vt 0.390625 0.500000
vt 0.406250 1.000000
vt 0.375000 0.500000
vt 0.390625 1.000000
vt 0.359375 0.500000
vt 0.375000 1.000000
vt 0.343750 0.500000
vt 0.359375 1.000000
vt 0.328125 0.500000
vt 0.343750 1.000000
vt 0.312500 0.500000
vt 0.328125 1.000000
vt 0.296875 0.500000
vt 0.312500 1.000000
vt 0.281250 0.500000
vt 0.296875 1.000000
vt 0.265625 0.500000
vt 0.281250 1.000000
vt 0.250000 0.500000
vt 0.265625 1.000000
vt 0.234375 0.500000
vt 0.250000 1.000000
vt 0.218750 0.500000
vt 0.234375 1.000000
vt 0.203125 0.500000
vt 0.218750 1.000000
vt 0.187500 0.500000
vt 0.203125 1.000000
vt 0.171875 0.500000
vt 0.187500 1.000000
vt 0.156250 0.500000
vt 0.171875 1.000000
vt 0.140625 0.500000
vt 0.156250 1.000000
vt 0.125000 0.500000
vt 0.140625 1.000000
vt 0.109375 0.500000
vt 0.125000 1.000000
vt 0.093750 0.500000
vt 0.109375 1.000000
vt 0.078125 0.500000
vt 0.093750 1.000000
vt 0.062500 0.500000
vt 0.078125 1.000000
vt 0.046875 0.500000
vt 0.062500 1.000000
vt 0.031250 0.500000
vt 0.046875 1.000000
vt 0.015625 0.500000
vt 0.031250 1.000000
vt 0.000000 0.500000
vt 0.015625 1.000000
vt 0.000000 1.000000
vt 0.990000 0.250000
vt 0.985388 0.296822
vn 0.0000 1.0000 0.0000
vn -0.0703 0.6962 0.7143
vn 0.0000 0.0000 1.0000
vn 0.0000 0.6962 0.7178
vn -0.1400 0.6962 0.7040
vn -0.0980 0.0000 0.9952
vn -0.2083 0.6962 0.6869
vn -0.1951 0.0000 0.9808
vn -0.2747 0.6962 0.6632
vn -0.2903 0.0000 0.9569
vn -0.3384 0.6962 0.6330
vn -0.3827 0.0000 0.9239
vn -0.3988 0.6962 0.5968
vn -0.4714 0.0000 0.8819
vn -0.4554 0.6962 0.5549
vn -0.5556 0.0000 0.8314
vn -0.5076 0.6962 0.5076
vn -0.6344 0.0000 0.7730
vn -0.5549 0.6962 0.4554
vn -0.7071 0.0000 0.7071
vn -0.5968 0.6962 0.3988
vn -0.7730 0.0000 0.6344
vn -0.6330 0.6962 0.3384
vn -0.8314 0.0000 0.5556
vn -0.6632 0.6962 0.2747
vn -0.8819 0.0000 0.4714
vn -0.6869 0.6962 0.2083
vn -0.9239 0.0000 0.3827
vn -0.7040 0.6962 0.1400
vn -0.9569 0.0000 0.2903
vn -0.7143 0.6962 0.0703
vn -0.9808 0.0000 0.1951
vn -0.7178 0.6962 0.0000
vn -0.9952 0.0000 0.0980
vn -0.7143 0.6962 -0.0703
vn -1.0000 0.0000 0.0000
vn -0.7040 0.6962 -0.1400
vn -0.9952 0.0000 -0.0980
vn -0.6869 0.6962 -0.2083
vn -0.9808 0.0000 -0.1951
vn -0.6632 0.6962 -0.2747
vn -0.9569 0.0000 -0.2903
vn -0.6330 0.6962 -0.3384
vn -0.9239 0.0000 -0.3827
vn -0.5968 0.6962 -0.3988
vn -0.8819 0.0000 -0.4714
vn -0.5549 0.6962 -0.4554
vn -0.8314 0.0000 -0.5556
vn -0.5076 0.6962 -0.5076
vn -0.7730 0.0000 -0.6344
vn -0.4554 0.6962 -0.5549
vn -0.7071 0.0000 -0.7071
vn -0.3988 0.6962 -0.5968
vn -0.6344 0.0000 -0.7730
vn -0.3384 0.6962 -0.6330
vn -0.5556 0.0000 -0.8314
vn -0.2747 0.6962 -0.6632
vn -0.4714 0.0000 -0.8819
vn -0.2083 0.6962 -0.6869
vn -0.3827 0.0000 -0.9239
vn -0.1400 0.6962 -0.7040
vn -0.2903 0.0000 -0.9569
vn -0.0703 0.6962 -0.7143
vn -0.1951 0.0000 -0.9808
vn 0.0000 0.6962 -0.7178
vn -0.0980 0.0000 -0.9952
vn 0.0703 0.6962 -0.7143
vn 0.0000 0.0000 -1.0000
vn 0.1400 0.6962 -0.7040
vn 0.0980 0.0000 -0.9952
vn 0.2083 0.6962 -0.6869
vn 0.1951 0.0000 -0.9808
vn 0.2747 0.6962 -0.6632
vn 0.2903 0.0000 -0.9569
vn 0.3384 0.6962 -0.6330
vn 0.3827 0.0000 -0.9239
vn 0.3988 0.6962 -0.5968
vn 0.4714 0.0000 -0.8819
vn 0.4554 0.6962 -0.5549
vn 0.5556 0.0000 -0.8314
vn 0.5076 0.6962 -0.5076
vn 0.6344 0.0000 -0.7730
vn 0.5549 0.6962 -0.4554
vn 0.7071 0.0000 -0.7071
vn 0.5968 0.6962 -0.3988
vn 0.7730 0.0000 -0.6344
vn 0.6330 0.6962 -0.3384
vn 0.8314 0.0000 -0.5556
vn 0.6632 0.6962 -0.2747
vn 0.8819 0.0000 -0.4714
vn 0.6869 0.6962 -0.2083
vn 0.9239 0.0000 -0.3827
vn 0.7040 0.6962 -0.1400
vn 0.9569 0.0000 -0.2903
vn 0.7143 0.6962 -0.0703
vn 0.9808 0.0000 -0.1951
vn 0.7178 0.6962 0.0000
vn 0.9952 0.0000 -0.0980
vn 0.7143 0.6962 0.0703
vn 1.0000 0.0000 0.0000
vn 0.7040 0.6962 0.1400
vn 0.9952 0.0000 0.0980
vn 0.6869 0.6962 0.2083
vn 0.9808 0.0000 0.1951
vn 0.6632 0.6962 0.2747
vn 0.9569 0.0000 0.2903
vn 0.6330 0.6962 0.3384
vn 0.9239 0.0000 0.3827
vn 0.5968 0.6962 0.3988
vn 0.8819 0.0000 0.4714
vn 0.5549 0.6962 0.4554
vn 0.8314 0.0000 0.5556
vn 0.5076 0.6962 0.5076
vn 0.7730 0.0000 0.6344
vn 0.4554 0.6962 0.5549
vn 0.7071 0.0000 0.7071
vn 0.3988 0.6962 0.5968
vn 0.6344 0.0000 0.7730
vn 0.3384 0.6962 0.6330
vn 0.5556 0.0000 0.8314
vn 0.2747 0.6962 0.6632
vn 0.4714 0.0000 0.8819
vn 0.2083 0.6962 0.6869
vn 0.3827 0.0000 0.9239
vn 0.1400 0.6962 0.7040
vn 0.2903 0.0000 0.9569
vn 0.0703 0.6962 0.7143
vn 0.1951 0.0000 0.9808
vn 0.0980 0.0000 0.9952
s off
f 99/1/1 67/2/1 35/3/1
f 3/4/1 1/5/1 127/6/1
f 127/6/1 125/7/1 123/8/1
f 123/8/1 121/9/1 115/10/1
f 121/9/1 119/11/1 115/10/1
f 119/11/1 117/12/1 115/10/1
f 115/10/1 113/13/1 111/14/1
f 111/14/1 109/15/1 107/16/1
f 107/16/1 105/17/1 103/18/1
f 103/18/1 101/19/1 107/16/1
f 101/19/1 99/1/1 107/16/1
f 99/1/1 97/20/1 95/21/1
f 95/21/1 93/22/1 99/1/1
f 93/22/1 91/23/1 99/1/1
f 91/23/1 89/24/1 87/25/1
f 87/25/1 85/26/1 83/27/1
f 83/27/1 81/28/1 79/29/1
f 79/29/1 77/30/1 75/31/1
f 75/31/1 73/32/1 67/2/1
f 73/32/1 71/33/1 67/2/1
f 71/33/1 69/34/1 67/2/1
f 67/2/1 65/35/1 63/36/1
f 63/36/1 61/37/1 59/38/1
f 59/38/1 57/39/1 55/40/1
f 55/40/1 53/41/1 51/42/1
f 51/42/1 49/43/1 43/44/1
f 49/43/1 47/45/1 43/44/1
f 47/45/1 45/46/1 43/44/1
f 43/44/1 41/47/1 39/48/1
f 39/48/1 37/49/1 35/3/1
f 27/50/1 25/51/1 19/52/1
f 25/51/1 23/53/1 19/52/1
f 23/53/1 21/54/1 19/52/1
f 19/52/1 17/55/1 11/56/1
f 17/55/1 15/57/1 11/56/1
f 15/57/1 13/58/1 11/56/1
f 11/56/1 9/59/1 7/60/1
f 7/60/1 5/61/1 11/56/1
f 5/61/1 3/4/1 11/56/1
f 3/4/1 127/6/1 115/10/1
f 127/6/1 123/8/1 115/10/1
f 115/10/1 111/14/1 107/16/1
f 91/23/1 87/25/1 83/27/1
f 83/27/1 79/29/1 75/31/1
f 67/2/1 63/36/1 51/42/1
f 63/36/1 59/38/1 51/42/1
f 59/38/1 55/40/1 51/42/1
f 43/44/1 39/48/1 51/42/1
f 39/48/1 35/3/1 51/42/1
f 35/3/1 31/62/1 27/50/1
f 115/10/1 107/16/1 3/4/1
f 107/16/1 99/1/1 3/4/1
f 99/1/1 91/23/1 83/27/1
f 83/27/1 75/31/1 99/1/1
f 75/31/1 67/2/1 99/1/1
f 35/3/1 27/50/1 3/4/1
f 27/50/1 19/52/1 3/4/1
f 19/52/1 11/56/1 3/4/1
f 67/2/1 51/42/1 35/3/1
f 3/4/1 99/1/1 35/3/1
s 1
f 3/63/2 2/64/3 1/65/4
f 5/66/5 4/67/6 3/63/2
f 7/68/7 6/69/8 5/66/5
f 9/70/9 8/71/10 7/68/7
f 11/72/11 10/73/12 9/70/9
f 13/74/13 12/75/14 11/72/11
f 15/76/15 14/77/16 13/74/13
f 17/78/17 16/79/18 15/76/15
f 19/80/19 18/81/20 17/78/17
f 21/82/21 20/83/22 19/80/19
f 23/84/23 22/85/24 21/82/21
f 25/86/25 24/87/26 23/84/23
f 27/88/27 26/89/28 25/86/25
f 29/90/29 28/91/30 27/88/27
f 31/92/31 30/93/32 29/90/29
f 33/94/33 32/95/34 31/92/31
f 35/96/35 34/97/36 33/94/33
f 37/98/37 36/99/38 35/96/35
f 39/100/39 38/101/40 37/98/37
f 41/102/41 40/103/42 39/100/39
f 43/104/43 42/105/44 41/102/41
f 45/106/45 44/107/46 43/104/43
f 47/108/47 46/109/48 45/106/45
f 49/110/49 48/111/50 47/108/47
f 51/112/51 50/113/52 49/110/49
f 53/114/53 52/115/54 51/112/51
f 55/116/55 54/117/56 53/114/53
f 57/118/57 56/119/58 55/116/55
f 59/120/59 58/121/60 57/118/57
f 61/122/61 60/123/62 59/120/59
f 63/124/63 62/125/64 61/122/61
f 65/126/65 64/127/66 63/124/63
f 67/128/67 66/129/68 65/126/65
f 69/130/69 68/131/70 67/128/67
f 71/132/71 70/133/72 69/130/69
f 73/134/73 72/135/74 71/132/71
f 75/136/75 74/137/76 73/134/73
f 77/138/77 76/139/78 75/136/75
f 79/140/79 78/141/80 77/138/77
f 81/142/81 80/143/82 79/140/79
f 83/144/83 82/145/84 81/142/81
f 85/146/85 84/147/86 83/144/83
f 87/148/87 86/149/88 85/146/85
f 89/150/89 88/151/90 87/148/87
f 91/152/91 90/153/92 89/150/89
f 93/154/93 92/155/94 91/152/91
f 95/156/95 94/157/96 93/154/93
f 97/158/97 96/159/98 95/156/95
f 99/160/99 98/161/100 97/158/97
f 101/162/101 100/163/102 99/160/99
f 103/164/103 102/165/104 101/162/101
f 105/166/105 104/167/106 103/164/103
f 107/168/107 106/169/108 105/166/105
f 109/170/109 108/171/110 107/168/107
f 111/172/111 110/173/112 109/170/109
f 113/174/113 112/175/114 111/172/111
f 115/176/115 114/177/116 113/174/113
f 117/178/117 116/179/118 115/176/115
f 119/180/119 118/181/120 117/178/117
f 121/182/121 120/183/122 119/180/119
f 123/184/123 122/185/124 121/182/121
f 125/186/125 124/187/126 123/184/123
f 127/188/127 126/189/128 125/186/125
f 1/190/4 128/191/129 127/188/127
f 3/63/2 4/67/6 2/64/3
f 5/66/5 6/69/8 4/67/6
f 7/68/7 8/71/10 6/69/8
f 9/70/9 10/73/12 8/71/10
f 11/72/11 12/75/14 10/73/12
f 13/74/13 14/77/16 12/75/14
f 15/76/15 16/79/18 14/77/16
f 17/78/17 18/81/20 16/79/18
f 19/80/19 20/83/22 18/81/20
f 21/82/21 22/85/24 20/83/22
f 23/84/23 24/87/26 22/85/24
f 25/86/25 26/89/28 24/87/26
f 27/88/27 28/91/30 26/89/28
f 29/90/29 30/93/32 28/91/30
f 31/92/31 32/95/34 30/93/32
f 33/94/33 34/97/36 32/95/34
f 35/96/35 36/99/38 34/97/36
f 37/98/37 38/101/40 36/99/38
f 39/100/39 40/103/42 38/101/40
f 41/102/41 42/105/44 40/103/42
f 43/104/43 44/107/46 42/105/44
f 45/106/45 46/109/48 44/107/46
f 47/108/47 48/111/50 46/109/48
f 49/110/49 50/113/52 48/111/50
f 51/112/51 52/115/54 50/113/52
f 53/114/53 54/117/56 52/115/54
f 55/116/55 56/119/58 54/117/56
f 57/118/57 58/121/60 56/119/58
f 59/120/59 60/123/62 58/121/60
f 61/122/61 62/125/64 60/123/62
f 63/124/63 64/127/66 62/125/64
f 65/126/65 66/129/68 64/127/66
f 67/128/67 68/131/70 66/129/68
f 69/130/69 70/133/72 68/131/70
f 71/132/71 72/135/74 70/133/72
f 73/134/73 74/137/76 72/135/74
f 75/136/75 76/139/78 74/137/76
f 77/138/77 78/141/80 76/139/78
f 79/140/79 80/143/82 78/141/80
f 81/142/81 82/145/84 80/143/82
f 83/144/83 84/147/86 82/145/84
f 85/146/85 86/149/88 84/147/86
f 87/148/87 88/151/90 86/149/88
f 89/150/89 90/153/92 88/151/90
f 91/152/91 92/155/94 90/153/92
f 93/154/93 94/157/96 92/155/94
f 95/156/95 96/159/98 94/157/96
f 97/158/97 98/161/100 96/159/98
f 99/160/99 100/163/102 98/161/100
f 101/162/101 102/165/104 100/163/102
f 103/164/103 104/167/106 102/165/104
f 105/166/105 106/169/108 104/167/106
f 107/168/107 108/171/110 106/169/108
f 109/170/109 110/173/112 108/171/110
f 111/172/111 112/175/114 110/173/112
f 113/174/113 114/177/116 112/175/114
f 115/176/115 116/179/118 114/177/116
f 117/178/117 118/181/120 116/179/118
f 119/180/119 120/183/122 118/181/120
f 121/182/121 122/185/124 120/183/122
f 123/184/123 124/187/126 122/185/124
f 125/186/125 126/189/128 124/187/126
f 127/188/127 128/191/129 126/189/128
f 1/190/4 2/192/3 128/191/129
f 35/3/35 33/193/33 31/62/31
f 31/62/31 29/194/29 27/50/27
