# Blender v2.90.0 OBJ File: 'vault.blend'
# www.blender.org
o bar_Cube
v 1.221218 0.401942 -0.819612
v 1.194400 0.500000 -0.700000
v 1.325188 0.404858 -0.717234
v 1.518000 -0.500000 -0.900000
v 1.481355 -0.401942 -0.980388
v 1.587212 -0.404858 -0.879177
v 1.325188 0.404858 0.717234
v 1.194400 0.500000 0.700000
v 1.221218 0.401942 0.819612
v 1.587212 -0.404858 0.879177
v 1.481355 -0.401942 0.980388
v 1.518000 -0.500000 0.900000
v -1.221218 0.401942 -0.819612
v -1.325188 0.404858 -0.717234
v -1.194400 0.500000 -0.700000
v -1.587212 -0.404858 -0.879177
v -1.481355 -0.401942 -0.980388
v -1.518000 -0.500000 -0.900000
v -1.325188 0.404858 0.717234
v -1.221218 0.401942 0.819612
v -1.194400 0.500000 0.700000
v -1.518000 -0.500000 0.900000
v -1.481355 -0.401942 0.980388
v -1.587212 -0.404858 0.879177
vn 0.0000 -1.0000 0.0000
vn -0.9514 0.3079 0.0000
vn -0.0000 0.1961 0.9806
vn 0.0000 1.0000 0.0000
vn 0.9514 0.3079 -0.0000
vn 0.4673 0.7322 -0.4955
vn 0.6496 -0.3219 -0.6887
vn 0.4673 0.7322 0.4955
vn 0.6496 -0.3219 0.6887
vn -0.4673 0.7322 -0.4955
vn -0.6496 -0.3219 -0.6887
vn -0.4673 0.7322 0.4955
vn -0.6496 -0.3219 0.6887
vn -0.8087 -0.5883 0.0000
vn -0.0000 -0.6340 -0.7733
vn 0.6533 0.3461 -0.6733
vn -0.6533 0.3461 0.6733
vn 0.6533 0.3461 0.6733
vn -0.6533 0.3461 -0.6733
vn 0.0000 0.7733 0.6340
vn 0.5883 0.8087 -0.0000
vn 0.0000 -0.6340 0.7733
vn -0.5883 0.8087 0.0000
vn 0.0000 0.7733 -0.6340
vn 0.8087 -0.5883 -0.0000
vn 0.0000 0.1961 -0.9806
s off
f 18//1 4//1 12//1 22//1
f 24//2 19//2 14//2 16//2
f 11//3 9//3 20//3 23//3
f 2//4 15//4 21//4 8//4
f 6//5 3//5 7//5 10//5
f 1//6 2//6 3//6
f 4//7 5//7 6//7
f 7//8 8//8 9//8
f 10//9 11//9 12//9
f 13//10 14//10 15//10
f 16//11 17//11 18//11
f 19//12 20//12 21//12
f 22//13 23//13 24//13
f 18//14 22//14 24//14 16//14
f 4//15 18//15 17//15 5//15
f 3//16 6//16 5//16 1//16
f 23//17 20//17 19//17 24//17
f 9//18 11//18 10//18 7//18
f 13//19 17//19 16//19 14//19
f 8//20 21//20 20//20 9//20
f 2//21 8//21 7//21 3//21
f 22//22 12//22 11//22 23//22
f 21//23 15//23 14//23 19//23
f 15//24 2//24 1//24 13//24
f 12//25 4//25 6//25 10//25
f 17//26 13//26 1//26 5//26
