# Blender v2.90.0 OBJ File: 'microfacets.blend'
# www.blender.org
o emitter_Plane.001
v -2.000000 5.000000 0.000000
v 0.000000 5.000000 0.000000
v -2.000000 5.000000 2.000000
v 0.000000 5.000000 2.000000
v 0.000000 5.000000 -2.000000
v 2.000000 5.000000 -2.000000
v 0.000000 5.000000 0.000000
v 2.000000 5.000000 0.000000
vt 0.000000 0.000000
vt 1.000000 0.000000
vt 1.000000 1.000000
vt 0.000000 1.000000
vt 0.000000 0.000000
vt 1.000000 0.000000
vt 1.000000 1.000000
vt 0.000000 1.000000
vn 0.0000 -1.0000 0.0000
s off
f 1/1/1 2/2/1 4/3/1 3/4/1
f 5/5/1 6/6/1 8/7/1 7/8/1
